<mxfile host="app.diagrams.net" modified="2023-07-15T21:57:40.631Z" agent="Mozilla/5.0 (Windows NT 10.0; Win64; x64) AppleWebKit/537.36 (KHTML, like Gecko) Chrome/114.0.0.0 Safari/537.36 Edg/114.0.1823.82" version="21.6.2" etag="4j0sn_qKnXF7q3PKeY2G" type="github">
  <diagram name="Page-1" id="OEXfUugf6p8x146eGnCY">
    <mxGraphModel>
      <root>
        <mxCell id="0" />
        <mxCell id="1" parent="0" />
      </root>
    </mxGraphModel>
  </diagram>
</mxfile>
